<?xml version="1.0" ?>
<!-- Uploaded to: SVG Repo, www.svgrepo.com, Generator: SVG Repo Mixer Tools -->
<svg width="800px" height="800px" viewBox="0 0 512 512" id="Layer_1" version="1.1" xml:space="preserve" xmlns="http://www.w3.org/2000/svg" xmlns:xlink="http://www.w3.org/1999/xlink">
<style type="text/css">
	.st0{fill:#333333;}
</style>
<g>
<path class="st0" d="M337.8,305.7c25.9-23.5,40.4-57,39.9-91.9c-0.5-31.7-13.2-61.6-35.8-84.2c-22.6-22.6-52.5-35.3-84.2-35.7   c-32.9-0.4-63.8,12-87.2,35c-23.4,23.1-36.2,53.8-36.2,86.6c0,34.7,14.9,67.9,40.9,91c18,16,29,38.8,30.8,63.3h-11.2   c-3.9,0-7,3.1-7,7v24.1v31.8v24.1c0,3.9,3.1,7,7,7h19.1c3.3,17.7,18.9,31.2,37.5,31.2h9.3c18.7,0,34.2-13.5,37.5-31.2h19.1   c3.9,0,7-3.1,7-7v-24.1v-31.8v-24.1c0-3.9-3.1-7-7-7H306C307.9,345.6,319.2,322.5,337.8,305.7z M223,425.7h-21.3v-17.8H223V425.7z    M260.7,480.9h-9.3c-10.9,0-20.1-7.2-23.1-17.2h55.6C280.8,473.7,271.6,480.9,260.7,480.9z M291.8,449.8h-71.7h-18.4v-10.1H230   c3.9,0,7-3.1,7-7v-8.9h38v8.9c0,3.9,3.1,7,7,7h28.3v10.1H291.8z M310.3,425.7H289v-17.8h21.3V425.7z M310.3,393.9H282   c-3.9,0-7,3.1-7,7v8.9h-38v-8.9c0-3.9-3.1-7-7-7h-28.3v-10.1h108.5V393.9z M328.4,295.3c-21.5,19.5-34.5,46.3-36.4,74.5h-72   c-1.8-28.5-14.5-55-35.5-73.7c-23-20.4-36.2-49.8-36.2-80.5c0-29,11.4-56.3,32.1-76.7c20.7-20.4,48.1-31.4,77.2-31   c57.7,0.8,105.3,48.4,106.1,106.1C364.1,244.9,351.3,274.5,328.4,295.3z"/>
<path class="st0" d="M265.4,218.2v-36.8c6.5,1.5,13,4.4,19.7,8.4c1.9,1.2,3.8,1.7,5.8,1.7c5.9,0,10.7-4.6,10.7-10.6   c0-4.6-2.7-7.5-5.8-9.2c-8.8-5.6-18.4-9.2-29.7-10.5V157c0-4.6-3.7-8.2-8.3-8.2c-4.6,0-8.4,3.6-8.4,8.2v4   c-24,1.9-40.3,16.1-40.3,36.6c0,8.8,2.2,15.7,6.6,21.4c6.5,8.3,17.8,13.8,34.5,18.1V275c-10.5-1.9-19.4-6.3-28.4-12.8   c-1.7-1.3-4-2.1-6.3-2.1c-5.9,0-10.5,4.6-10.5,10.5c0,4,1.9,7.1,5.2,9.2c11.7,8.2,24.9,13.4,39.3,15v11.9c0,4.6,3.8,8.2,8.4,8.2   c4.6,0,8.3-3.6,8.3-8.2v-11.5c24.3-2.3,40.8-16.3,40.8-37.4C307,237.2,294.5,225.5,265.4,218.2z M250.2,214.2c-3-1-5.5-2-7.7-3   c0,0,0,0,0,0c-8.4-4-10.7-8.5-10.7-14.9c0-8.4,6.1-14.9,18.4-16.1V214.2z M265.4,275.7v-34.9c14.8,4.6,19,9.8,19,18.2   C284.4,268.3,277.7,274.4,265.4,275.7z"/>
<path class="st0" d="M54.5,224.8c-3.9,0-7,3.1-7,7s3.1,7,7,7H82c3.9,0,7-3.1,7-7s-3.1-7-7-7H54.5z"/>
<path class="st0" d="M114,82.6c-2.7-2.7-7.2-2.7-9.9,0c-2.7,2.7-2.7,7.2,0,9.9l19.4,19.4c1.4,1.4,3.2,2.1,4.9,2.1s3.6-0.7,4.9-2.1   c2.7-2.7,2.7-7.2,0-9.9L114,82.6z"/>
<path class="st0" d="M256.7,51.6V24.1c0-3.9-3.1-7-7-7s-7,3.1-7,7v27.5c0,3.9,3.1,7,7,7S256.7,55.4,256.7,51.6z"/>
<path class="st0" d="M399,83.6c2.7-2.7,2.7-7.2,0-9.9c-2.7-2.7-7.2-2.7-9.9,0l-19.4,19.4c-2.7,2.7-2.7,7.2,0,9.9   c1.4,1.4,3.2,2.1,4.9,2.1s3.6-0.7,4.9-2.1L399,83.6z"/>
<path class="st0" d="M430,212.3c-3.9,0-7,3.1-7,7s3.1,7,7,7h27.5c3.9,0,7-3.1,7-7s-3.1-7-7-7H430z"/>
</g>
</svg>